<svg width="19" height="19" viewBox="0 0 19 19" fill="none" xmlns="http://www.w3.org/2000/svg">
<g clip-path="url(#clip0_285_73)">
<path d="M5.61524 18.1285C1.72376 16.547 -1.30217 11.5492 0.562646 6.3124C2.29376 1.45521 7.67005 -1.27213 12.7719 0.590613C17.7119 2.39712 20.2593 7.89398 18.3804 12.8426C16.403 18.0723 10.8438 19.9069 6.86783 18.5925C6.96635 18.4167 7.06487 18.241 7.16339 18.0653C7.54339 17.3975 7.78265 16.6805 7.95857 15.9424C8.09931 15.3379 8.2682 14.7404 8.42302 14.1359C8.44413 14.1219 8.47227 14.1078 8.49339 14.0938C8.52153 14.143 8.53561 14.2062 8.57079 14.2484C9.10561 14.8459 9.79524 15.1552 10.5834 15.1833C12.3989 15.2466 13.7641 14.4312 14.7493 12.955C15.4319 11.9358 15.7556 10.783 15.8682 9.57397C15.9175 9.0538 15.9456 8.54067 15.8682 8.02051C15.7134 6.82554 15.1997 5.79927 14.3482 4.94873C13.1871 3.78891 11.7515 3.2336 10.1189 3.17737C8.96487 3.13519 7.84598 3.29687 6.79746 3.76782C4.76376 4.66756 3.48302 6.19291 3.10302 8.40711C2.92005 9.48259 3.06079 10.537 3.58857 11.514C3.89116 12.0693 4.32746 12.4981 4.91154 12.7582C5.25635 12.9128 5.42524 12.8355 5.53079 12.463C5.59413 12.231 5.65042 11.999 5.70672 11.7671C5.74894 11.5984 5.72783 11.4437 5.61524 11.3102C4.86228 10.4386 4.82709 9.41932 5.05931 8.37197C5.36191 7.0083 6.14302 5.98906 7.39561 5.35643C8.29635 4.89953 9.26746 4.79409 10.2597 4.90656C10.9704 4.98388 11.6249 5.20179 12.2089 5.6376C12.9126 6.16479 13.3419 6.87474 13.4615 7.73231C13.6656 9.1733 13.4334 10.5651 12.786 11.8796C12.5326 12.3927 12.1878 12.8426 11.6952 13.1659C11.1956 13.4963 10.6608 13.6228 10.0767 13.4611C9.34487 13.2503 8.92265 12.6317 9.05635 11.8796C9.14079 11.4086 9.29561 10.9517 9.42228 10.4878C9.55598 10.0098 9.70376 9.53179 9.81635 9.04677C9.87968 8.77966 9.90783 8.49146 9.89376 8.21732C9.85857 7.12779 8.83116 6.5514 7.88116 7.08562C7.30413 7.40193 7.00153 7.93616 6.84672 8.5477C6.65672 9.26468 6.72709 9.98166 6.95931 10.6776C7.01561 10.8392 7.01561 10.9868 6.98042 11.1555C6.62857 12.6106 6.29079 14.0727 5.93894 15.5277C5.7419 16.322 5.61524 17.1304 5.62931 17.9528C5.62931 18.0161 5.62228 18.0864 5.61524 18.1777V18.1285Z" fill="#FFFAF3"/>
</g>
<defs>
<clipPath id="clip0_285_73">
<rect width="19" height="19" fill="white"/>
</clipPath>
</defs>
</svg>
