<svg width="16" height="18" viewBox="0 0 16 18" fill="none" xmlns="http://www.w3.org/2000/svg">
<g clip-path="url(#clip0_285_70)">
<path d="M6.47875 6.42759V9.37241C5.77002 9.6 5.06846 9.76552 4.417 10.0483C2.66309 10.8 2.73468 12.6483 3.37897 13.6552C4.23087 14.9931 6.17808 15.4069 7.38076 14.4897C8.37584 13.7379 8.59776 12.6483 8.60492 11.5103C8.61208 8.43448 8.60492 5.36552 8.59776 2.28965C8.59776 1.53793 8.59776 0.786206 8.59776 -0.00689697H11.6617C12.0125 2.41379 13.3011 3.97931 16 4.2V7.04138C15.2412 7.14483 14.511 7.06207 13.8022 6.8C13.1078 6.53793 12.4349 6.22759 11.7119 5.92414C11.7119 6.11034 11.7119 6.28276 11.7119 6.45517C11.6904 8.34483 11.7262 10.2414 11.6403 12.1241C11.5257 14.6552 9.74318 16.9655 7.41656 17.6966C3.77987 18.8276 0.751679 16.4897 0.143178 13.5172C-0.357941 11.0621 0.336466 8.97241 2.54855 7.50345C3.70112 6.73793 5.0255 6.45517 6.47159 6.4069L6.47875 6.42759Z" fill="#FFFAF3"/>
</g>
<defs>
<clipPath id="clip0_285_70">
<rect width="16" height="18" fill="white"/>
</clipPath>
</defs>
</svg>
